<svg xmlns="http://www.w3.org/2000/svg" width="22" height="20">
    <path fill-rule="evenodd" fill="#29282D" d="m21.993 4.719-2.002 8.037a.823.823 0 0 1-.799.621H6.379a.822.822 0 0 1-.801-.628L2.903 1.634H.837A.82.82 0 0 1 .014.817.82.82 0 0 1 .837 0h2.716c.381 0 .712.259.801.627l.74 3.077h16.1a.822.822 0 0 1 .799 1.015ZM5.488 5.34l1.541 6.402h11.519l1.595-6.402H5.488Zm1.988 9.208c1.513 0 2.744 1.223 2.744 2.725 0 1.503-1.231 2.724-2.744 2.724a2.736 2.736 0 0 1-2.743-2.724 2.737 2.737 0 0 1 2.743-2.725Zm0 3.815c.606 0 1.098-.49 1.098-1.09 0-.601-.492-1.09-1.098-1.09-.605 0-1.097.489-1.097 1.09 0 .6.492 1.09 1.097 1.09Zm9.96-3.815a2.737 2.737 0 0 1 2.743 2.725 2.736 2.736 0 0 1-2.743 2.724c-1.513 0-2.744-1.221-2.744-2.724 0-1.502 1.231-2.725 2.744-2.725Zm0 3.815c.605 0 1.097-.49 1.097-1.09 0-.601-.492-1.09-1.097-1.09-.606 0-1.098.489-1.098 1.09 0 .6.492 1.09 1.098 1.09Z"/>
</svg>