<svg xmlns="http://www.w3.org/2000/svg" width="21" height="20">
    <path fill-rule="evenodd" fill="#29282D" d="M19.778 4.589C19.097 2.17 17.096.726 15.605.218c-1.703-.595-3.747 0-5.578 1.611C8.196.26 6.152-.292 4.449.26 2.959.811.957 2.254.276 4.631c-.468 1.57-.511 4.117 1.959 7.215 1.107 1.4 2.81 3.395 4.215 4.965 2.683 3.014 3.109 3.183 3.492 3.183h.17c.384 0 .767-.169 3.449-3.225a224.445 224.445 0 0 0 4.216-4.966c2.47-3.097 2.47-5.644 2.001-7.214ZM16.5 10.784c-1.959 2.462-5.323 6.324-6.473 7.386-1.15-1.062-4.514-4.924-6.472-7.386C1.937 8.79 1.341 6.838 1.852 5.097c.51-1.782 2.001-2.843 3.108-3.224 1.235-.468 2.896.169 4.428 1.655a.847.847 0 0 0 1.065.126c.085-.042.17-.084.213-.17 1.533-1.442 3.194-2.079 4.428-1.655 1.107.425 2.598 1.486 3.109 3.268.511 1.698-.085 3.693-1.703 5.687Z"/>
</svg>