<svg xmlns="http://www.w3.org/2000/svg" width="20" height="20">
    <path fill-rule="evenodd" fill="#29282D" d="M17.071 12.928a9.953 9.953 0 0 0-3.8-2.384 5.777 5.777 0 0 0 2.51-4.764A5.787 5.787 0 0 0 10-.001 5.787 5.787 0 0 0 4.219 5.78c0 1.975.995 3.721 2.51 4.764a9.946 9.946 0 0 0-3.8 2.384A9.933 9.933 0 0 0 0 19.998h1.562c0-4.652 3.785-8.436 8.438-8.436 4.652 0 8.437 3.784 8.437 8.436H20c0-2.67-1.04-5.181-2.929-7.07ZM5.781 5.78A4.224 4.224 0 0 1 10 1.561a4.224 4.224 0 0 1 4.219 4.219A4.224 4.224 0 0 1 10 9.999 4.224 4.224 0 0 1 5.781 5.78Z"/>
</svg>