<svg xmlns="http://www.w3.org/2000/svg" width="48" height="33.1">
  <defs>
    <clipPath id="a">
      <path fill="none" d="M0 0h48v33.1H0z"/>
    </clipPath>
    <clipPath id="b">
      <path fill="none" d="M0 0h4.85v33.1H0z"/>
    </clipPath>
  </defs>
  <g clip-path="url(#a)">
    <rect width="48" height="33.1" rx="2.84" ry="2.84" fill="#fff"/>
    <path d="m10.65 16.74-1.12-5.4a1.34 1.34 0 0 0-1.45-1H2.91v.25c4 1 6.69 3.33 7.79 6.16" fill="#f79f1a"/>
    <path fill="#059bbf" d="M22.63 10.45h-3.34L17.2 22.68h3.34l2.09-12.23zM12.69 22.67l5.25-12.22h-3.53l-3.27 8.35-.35-1.26a13.06 13.06 0 0 0-4.62-5.07l3 10.21ZM32.15 18.68c0-1.39-.88-2.45-2.8-3.32-1.17-.57-1.88-.94-1.87-1.52s.6-1.05 1.91-1.05a6.16 6.16 0 0 1 2.5.47l.3.14.45-2.65a8.65 8.65 0 0 0-3-.51c-3.3 0-5.62 1.66-5.64 4C24 16 25.67 17 26.93 17.6s1.73 1 1.73 1.52c0 .82-1 1.19-2 1.19a7 7 0 0 1-3.14-.64l-.43-.2-.47 2.74a10.52 10.52 0 0 0 3.71.65c3.5 0 5.78-1.64 5.81-4.18M36.12 20.85h4.27c.1.43.41 1.84.41 1.84h3.09l-2.7-12.23h-2.58a1.66 1.66 0 0 0-1.75 1l-5 11.22h3.51s.57-1.51.7-1.84m2.29-5.93s.28-.71.44-1.17l.23 1.06.77 3.53h-2.73l1.33-3.42M45.16 0H2.84A2.84 2.84 0 0 0 0 2.84v2.94h48V2.84A2.84 2.84 0 0 0 45.16 0"/>
    <path d="M45.16 33.1H2.84A2.84 2.84 0 0 1 0 30.27v-2.95h48v2.94a2.84 2.84 0 0 1-2.84 2.84" fill="#f79f1a"/>
    <g clip-path="url(#b)" style="isolation:isolate" opacity=".15">
      <path d="M2 30.27V2.84A2.84 2.84 0 0 1 4.86 0h-2A2.84 2.84 0 0 0 0 2.84v27.43a2.84 2.84 0 0 0 2.84 2.83h2A2.84 2.84 0 0 1 2 30.27" fill="#202121"/>
    </g>
  </g>
</svg>
